<svg xmlns="http://www.w3.org/2000/svg"
shape-rendering="geometricPrecision"
width="4000" height="4000" viewBox="0 0 1024 1024">
  <metadata>null</metadata>

<path d="
M 46.956 699.094
C 47.093 698.63 47.138 698.205 47.184 697.72
C 49.556 697.35 52.103 697.686 54.503 697.698
C 59.001 697.722 63.503 697.674 68 697.648
C 71.628 697.626 75.255 697.677 78.882 697.632
C 93.755 697.447 113.147 696.23 121.468 711.458
C 122.642 713.605 123.509 715.904 124.065 718.287
C 128.168 735.846 114.041 751.435 97.41 754.308
C 93.938 754.908 90.26 755.009 86.744 754.806
C 85.279 754.721 83.461 754.599 82.186 753.81
C 81.453 752.942 81.335 751.391 81.131 750.301
C 87.572 750.126 93.754 750.765 99.043 746.296
C 109.637 737.343 110.166 716.527 99.537 707.368
C 95.129 703.57 89.592 702.815 84.009 702.654
C 81.253 702.575 77.736 702.106 75.118 703.121
C 74.44 705.654 74.66 708.4 74.64 710.999
C 74.609 715.166 74.605 719.334 74.607 723.501
C 74.614 737.168 74.618 750.835 74.695 764.502
C 74.724 769.818 74.741 775.134 74.761 780.451
C 74.772 783.252 74.479 786.578 75.531 789.237
C 77.525 794.272 83.63 794.32 88.025 795.313
C 87.799 796.478 87.867 797.692 87.88 798.875
C 78.752 798.726 69.637 798.54 60.503 798.551
C 56.071 798.556 51.139 799.374 46.773 798.628
C 46.888 797.476 47.115 796.389 47.345 795.258
C 51.636 794.262 56.177 794.517 58.012 789.725
C 58.792 787.687 58.587 784.961 58.609 782.808
C 58.653 778.541 58.649 774.272 58.639 770.004
C 58.608 755.837 58.67 741.671 58.663 727.504
C 58.661 722.585 58.642 717.666 58.598 712.747
C 58.58 710.695 58.905 707.85 58.024 705.945
C 55.713 700.951 51.09 702.315 46.825 701.054
C 46.769 700.387 46.848 699.752 46.956 699.094 Z"
opacity="1" fill="rgb(121,164,187)" fill-rule="evenodd" />
<path d="
M 147.449 742.59
C 149.67 726.374 158.128 711.323 172.488 702.902
C 191.139 691.965 217.157 693.7 233.642 707.958
C 240.587 713.965 245.464 722.244 248.075 730.973
C 250.427 738.839 250.735 747.223 249.666 755.33
C 247.898 768.742 240.871 782.335 229.702 790.289
C 207.429 806.151 173.555 803.441 156.855 780.792
C 153.07 775.658 150.353 769.515 148.802 763.344
C 147.1 756.567 146.497 749.538 147.449 742.59 Z
M 165.43 734.608
C 163.597 752.497 167.589 774.627 181.598 787.158
C 192.644 797.039 211.762 799.104 222.453 787.304
C 228.44 780.695 230.768 771.208 231.67 762.556
C 233.578 744.245 230.214 722.282 216.004 709.21
C 205.214 699.285 186.454 697.988 175.797 708.893
C 169.19 715.654 166.373 725.414 165.43 734.608 Z"
opacity="1" fill="rgb(121,164,187)" fill-rule="evenodd" />
<path d="
M 246.628 533.268
C 254.259 532.236 261.649 530.957 268.725 527.726
C 277.66 523.645 285.524 517.152 291.182 509.102
C 296.673 501.29 300.291 492.309 303.936 483.545
C 307.122 475.887 310.279 468.218 313.424 460.543
C 335.247 407.272 356.784 353.883 378.462 300.555
C 385.054 284.338 391.837 268.2 398.405 251.975
C 400.873 245.878 403.275 239.76 405.628 233.617
C 406.864 230.389 408.463 227.175 409.416 223.858
C 412.051 223.52 414.847 223.771 417.503 223.761
C 418.302 223.758 419.831 223.427 420.38 223.987
C 430.313 245.667 438.83 267.852 447.858 289.916
C 452.019 300.085 456.219 310.242 460.214 320.478
C 461.92 324.847 464.207 329.142 465.586 333.62
C 469.045 334.409 473.446 333.714 477.005 333.712
C 485.001 333.708 492.998 333.669 500.994 333.63
C 521.664 333.528 542.332 333.444 563.002 333.434
C 572.857 333.429 583.124 332.588 592.935 333.456
C 595.742 338.368 598.967 343.154 602.068 347.888
C 602.865 349.106 603.673 350.323 604.434 351.565
C 604.513 351.694 605.252 352.59 605.218 352.664
C 598.891 352.225 592.344 352.73 585.997 352.75
C 572.997 352.791 559.998 352.845 546.999 352.851
C 530.998 352.859 514.997 352.82 498.996 352.785
C 490.566 352.767 482.04 352.383 473.623 352.797
C 478.837 364.963 483.232 377.505 488.117 389.809
C 499.189 417.7 510.382 445.607 522.134 473.219
C 525.939 482.159 529.414 491.243 533.176 500.203
C 536.875 509.011 540.791 517.766 548.134 524.205
C 552.475 528.012 557.975 530.774 563.592 532.12
C 567.435 533.042 571.635 533.138 575.374 534.369
C 576.325 537.251 576.022 540.801 576.124 543.798
C 547.133 542.941 518.004 543.676 489 543.697
C 480.332 543.704 471.665 543.704 462.998 543.706
C 460.164 543.707 457.33 543.709 454.496 543.702
C 453.288 543.699 451.891 543.946 450.716 543.69
C 450.681 540.125 450.867 536.553 450.836 532.993
C 453.903 532.164 457.546 532.468 460.722 532.291
C 467.974 531.887 477.783 530.409 482.867 524.691
C 488.974 517.824 486.383 507.308 483.495 499.646
C 478.165 485.509 472.259 471.566 466.726 457.504
C 463.933 450.405 461.767 442.845 458.433 435.985
C 453.96 435.288 449.021 435.79 444.497 435.792
C 435.663 435.797 426.829 435.812 417.995 435.823
C 392.504 435.854 366.98 435.478 341.494 435.927
C 336.548 447.729 332.029 459.763 327.442 471.708
C 324.111 480.379 320.226 489.067 317.703 498.014
C 315.343 506.382 313.684 516.82 320.14 523.882
C 325.176 529.393 332.841 531.333 339.976 532.26
C 342.279 532.559 344.611 532.712 346.931 532.805
C 347.827 532.841 349.434 532.65 350.119 533.271
C 350.129 536.733 349.916 540.331 350.164 543.778
C 342.309 544.093 334.36 543.747 326.497 543.728
C 311.497 543.691 296.498 543.692 281.499 543.703
C 273.664 543.709 265.83 543.707 257.995 543.733
C 254.502 543.745 250.039 544.477 246.652 543.698
C 246.676 540.248 246.863 536.705 246.628 533.268 Z
M 346.752 421.69
C 346.749 421.82 346.746 421.951 346.744 422.082
C 355.425 422.559 364.303 422.093 373.005 422.091
C 390.172 422.086 407.339 422.095 424.506 422.095
C 431.067 422.095 437.627 422.053 444.188 422.042
C 446.88 422.038 449.869 421.579 452.522 421.92
C 444.707 402.948 437.342 383.78 429.852 364.675
C 424.026 349.813 417.885 335.056 412.203 320.134
C 409.143 312.097 405.771 304.173 402.747 296.12
C 402.059 294.286 401.37 292.457 400.707 290.618
C 400.51 290.073 400.183 288.632 399.52 288.672
C 397.118 296.136 393.688 303.463 390.822 310.776
C 384.383 327.206 377.693 343.537 371.229 359.958
C 366.196 372.745 360.964 385.454 355.949 398.247
C 353.622 404.182 351.403 410.176 348.924 416.049
C 348.144 417.899 347.661 419.9 346.752 421.69 Z"
opacity="1" fill="rgb(122,166,187)" fill-rule="evenodd" />
<path d="
M 273.9 699.083
C 274.069 698.607 274.146 698.214 274.201 697.706
C 277.595 697.467 281.089 697.794 284.498 697.778
C 292.663 697.74 300.831 697.721 308.997 697.741
C 318.391 697.764 328.71 697.137 337.363 701.492
C 350.715 708.21 354.191 725.161 345.51 737.098
C 341.567 742.52 335.871 745.406 329.866 747.942
C 330.873 750.014 332.554 751.931 333.888 753.811
C 335.669 756.322 337.259 758.992 338.848 761.627
C 342.985 768.489 347.346 775.229 352.135 781.653
C 355.357 785.976 358.85 790.431 363.354 793.486
C 365.34 794.833 367.478 795.224 369.595 796.159
C 369.628 797.324 369.433 798.472 369.756 799.623
C 369.765 799.632 368.844 799.528 368.725 799.51
C 368.052 799.406 367.359 799.408 366.68 799.417
C 364.706 799.444 362.725 799.367 360.753 799.273
C 354.472 798.973 348.09 798.261 343.36 793.723
C 339.518 790.036 336.516 785.51 333.608 781.079
C 330.193 775.875 326.686 770.711 323.38 765.437
C 321.488 762.42 319.755 759.209 317.587 756.381
C 316.777 755.325 315.789 753.862 314.537 753.323
C 310.399 752.966 305.939 752.777 301.798 753.006
C 301.415 761.629 301.813 770.364 301.805 778.998
C 301.802 782.269 300.979 787.41 302.706 790.356
C 305.052 794.36 310.622 795.146 314.793 795.588
C 314.737 796.508 315.066 798.172 314.638 798.965
C 301.376 798.183 287.735 798.428 274.464 798.921
C 273.965 798.036 274.208 796.323 274.283 795.328
C 278.191 794.572 283.552 794.824 285.171 790.292
C 286.057 787.813 285.794 784.97 285.785 782.385
C 285.77 778.423 285.794 774.461 285.791 770.5
C 285.781 756.499 285.778 742.499 285.782 728.499
C 285.783 723.43 285.87 718.352 285.765 713.283
C 285.722 711.184 286.071 708.359 285.188 706.407
C 284.38 704.622 282.371 702.565 280.45 702.007
C 278.327 701.39 275.706 701.792 273.764 700.657
C 273.762 700.114 273.819 699.619 273.9 699.083 Z
M 301.901 703.444
C 301.086 717.997 302.2 732.588 301.797 747.146
C 302.47 747.57 303.708 747.308 304.501 747.315
C 306.995 747.338 309.515 747.284 312.005 747.136
C 318.475 746.751 324.435 745.074 328.547 739.73
C 337.386 728.245 334.009 707.562 318.87 703.53
C 313.771 702.171 307.396 702.304 302.2 703.051
C 302.1 703.182 302.001 703.313 301.901 703.444 Z"
opacity="1" fill="rgb(121,165,188)" fill-rule="evenodd" />
<path d="
M 381.94 715.609
C 382.784 709.857 382.586 703.769 382.776 697.962
C 383.462 696.899 386.887 697.588 388.018 697.625
C 393.176 697.791 398.338 697.842 403.499 697.859
C 418.161 697.907 432.836 698.062 447.497 697.872
C 452.498 697.808 457.497 697.768 462.497 697.654
C 464.688 697.604 466.99 697.132 469.167 697.352
C 469.929 698.796 469.284 702.333 469.292 703.998
C 469.319 709.599 469.987 715.601 469.456 721.154
C 468.838 721.57 466.393 721.452 465.646 721.257
C 464.419 714.925 463.617 706.858 456.336 704.614
C 452.631 703.472 448.056 704.15 444.213 703.982
C 441.513 703.864 438.788 703.782 436.085 703.845
C 435.411 703.86 433.723 703.779 433.36 704.303
C 433.183 724.033 433.359 743.771 433.383 763.502
C 433.39 769.168 433.387 774.835 433.36 780.501
C 433.346 783.413 432.853 787.067 433.902 789.841
C 435.623 794.391 441.434 794.716 445.479 795.45
C 445.559 796.005 445.352 798.868 445.766 799.109
C 444.428 798.737 442.87 798.924 441.496 798.886
C 438.662 798.808 435.832 798.755 432.997 798.746
C 423.778 798.719 414.56 798.952 405.348 798.98
C 405.016 798.05 405.281 796.947 405.314 795.978
C 405.738 794.983 408.553 795.002 409.61 794.808
C 412.596 794.261 415.516 793.32 416.703 790.236
C 417.791 787.411 417.35 783.966 417.356 780.997
C 417.367 775.163 417.366 769.33 417.359 763.497
C 417.338 743.74 418.183 723.799 417.273 704.065
C 412.436 703.994 407.581 704.088 402.733 704.119
C 400.112 704.136 397.005 703.865 394.586 705.031
C 388.781 707.829 386.448 715.652 385.541 721.528
C 384.284 721.706 382.976 721.588 381.708 721.579
C 381.674 719.589 381.757 717.592 381.94 715.609 Z"
opacity="1" fill="rgb(121,164,188)" fill-rule="evenodd" />
<path d="
M 432.838 223.881
C 442.033 223.483 451.297 223.79 460.501 223.776
C 478.501 223.75 496.501 223.75 514.501 223.733
C 523.002 223.725 531.505 223.647 540.006 223.688
C 542.338 223.7 544.67 223.736 547.002 223.731
C 548.204 223.728 549.734 223.486 550.877 223.858
C 550.652 227.149 550.999 230.493 550.859 233.794
C 545.152 234.162 539.439 234.62 533.846 235.884
C 531.361 236.446 529.016 237.267 526.747 238.434
C 524.961 239.353 523.335 240.431 521.861 241.803
C 517.738 245.638 516.737 251.976 517.644 257.303
C 519.248 266.722 523.958 275.324 527.526 284.086
C 529.044 287.813 530.601 291.529 532.185 295.23
C 533.888 299.21 535.388 303.275 537.146 307.233
C 537.605 308.265 538.006 309.326 538.489 310.347
C 538.525 310.423 538.893 310.987 538.823 311.141
C 526.513 312.081 513.847 311.297 501.501 311.3
C 497.748 311.301 493.844 310.975 490.11 311.306
C 489.074 310.351 488.699 308.017 488.141 306.715
C 486.435 302.735 484.897 298.673 483.142 294.717
C 479.073 285.54 475.244 276.235 471.412 266.959
C 468.783 260.596 466.258 253.867 462.251 248.208
C 457.989 242.189 451.693 237.097 444.475 235.172
C 442.084 234.534 439.618 234.118 437.175 233.735
C 435.818 233.522 434.067 233.543 432.862 232.84
C 432.57 230.46 431.852 226.061 432.838 223.881 Z"
opacity="1" fill="rgb(123,166,187)" fill-rule="evenodd" />
<path d="
M 492.599 315.907
C 496.359 315.572 500.232 315.826 504.005 315.826
C 511.005 315.826 518.005 315.816 525.005 315.813
C 528.671 315.811 532.337 315.804 536.004 315.8
C 537.886 315.798 540.108 315.491 541.936 315.959
C 542.567 317.459 542.956 318.82 543.305 320.407
C 538.605 320.03 533.717 320.402 528.998 320.411
C 517.208 320.434 505.353 320.725 493.57 320.392
C 492.448 319.493 492.3 317.375 491.834 316.114
C 492.089 316.045 492.344 315.976 492.599 315.907 Z"
opacity="1" fill="rgb(120,164,182)" fill-rule="evenodd" />
<path d="
M 492.802 795.881
C 496.571 793.437 501.896 795.112 504.005 790.056
C 505.129 787.364 504.917 784.114 504.925 781.255
C 504.938 776.604 505.064 771.963 505.05 767.312
C 505.007 753.597 505.013 739.88 505.048 726.165
C 505.059 722.145 504.947 718.135 504.936 714.114
C 504.93 711.899 505.207 709.05 504.428 706.942
C 502.672 702.196 497.564 701.691 493.255 701.128
C 493.144 699.975 493.619 698.85 493.873 697.736
C 495.899 697.155 498.881 697.809 501.002 697.839
C 505.833 697.909 510.667 697.858 515.499 697.843
C 526.165 697.809 536.832 697.844 547.499 697.792
C 550.831 697.776 554.166 697.787 557.499 697.741
C 559.327 697.715 561.369 697.39 563.166 697.723
C 563.09 702.669 563.479 707.655 563.619 712.602
C 563.683 714.846 563.316 717.572 563.753 719.75
C 562.595 719.909 561.332 719.945 560.182 719.717
C 559.542 717.274 559.39 714.769 558.237 712.476
C 556.581 709.181 554.332 706.123 550.89 704.55
C 549.026 703.698 546.544 703.763 544.538 703.697
C 540.66 703.57 536.783 703.566 532.905 703.529
C 529.937 703.5 526.968 703.34 523.999 703.428
C 523.179 703.453 521.452 703.373 520.944 703.914
C 520.72 713.604 520.906 723.31 520.91 733.003
C 520.911 735.647 520.883 738.292 520.894 740.936
C 520.899 741.889 520.683 743.317 521.148 744.165
C 527.403 744.279 533.762 744.407 540.003 743.942
C 542.81 743.733 546.068 743.215 547.979 740.869
C 549.488 739.015 549.607 735.491 550.355 733.212
C 551.109 733.126 553.363 732.856 553.915 733.398
C 553.205 742.996 554.135 752.811 554.086 762.413
C 552.895 762.336 551.71 762.338 550.518 762.334
C 549.905 761.918 550.082 759.851 549.98 759.065
C 549.692 756.858 549.087 753.755 547.369 752.153
C 545.55 750.458 542.007 750.288 539.666 750.191
C 533.547 749.936 527.264 749.842 521.151 750.206
C 520.885 759.684 520.973 769.213 520.954 778.7
C 520.947 782.057 520.046 787.51 522.017 790.438
C 524.778 794.54 529.809 794.5 534.103 795.41
C 534.303 796.506 533.669 797.788 533.813 798.917
C 530.45 799.209 526.885 798.71 523.499 798.71
C 513.343 798.713 503.151 798.415 493.004 798.86
C 492.554 798.248 492.649 796.595 492.802 795.881 Z"
opacity="1" fill="rgb(122,164,187)" fill-rule="evenodd" />
<path d="
M 511.876 366.584
C 511.853 366.377 511.83 366.171 511.806 365.964
C 515.464 365.396 519.306 365.763 523.001 365.76
C 529.335 365.754 535.669 365.707 542.003 365.676
C 545.918 365.657 549.832 365.58 553.748 365.593
C 555.607 365.599 557.752 365.311 559.563 365.735
C 559.964 367.234 560.773 368.689 561.197 370.214
C 557.343 369.631 552.905 370.206 548.994 370.206
C 540.828 370.206 532.661 370.186 524.496 370.25
C 520.997 370.277 516.627 371.08 513.234 370.398
C 512.627 369.152 512.212 367.924 511.876 366.584 Z"
opacity="1" fill="rgb(111,158,181)" fill-rule="evenodd" />
<path d="
M 515.772 375.392
C 527.671 375.06 539.59 375.167 551.498 375.074
C 554.497 375.05 557.496 374.974 560.495 374.883
C 561.28 374.86 562.833 374.437 563.402 374.917
C 573.331 398.855 583.054 422.887 592.736 446.931
C 595.743 454.399 598.693 461.891 601.662 469.373
C 602.978 472.689 603.849 476.519 605.474 479.656
C 606.454 477.965 606.826 475.875 607.417 474.021
C 608.331 471.155 609.364 468.312 610.398 465.486
C 613.757 456.304 617.174 447.144 620.616 437.992
C 627.437 419.85 634.7 401.876 641.468 383.715
C 646.086 371.322 650.606 358.858 655.476 346.562
C 662.21 329.562 668.49 312.381 675.051 295.313
C 679.296 284.272 685.087 272.527 686.193 260.627
C 686.493 257.402 686.67 253.876 686.084 250.678
C 685.742 248.812 685.135 246.984 684.207 245.327
C 678.239 234.661 666.104 234.386 655.326 233.618
C 655.336 230.427 655.622 227.218 655.499 224.037
C 657.047 223.195 659.76 223.761 661.502 223.75
C 666.335 223.718 671.168 223.748 676.001 223.75
C 693.668 223.759 711.336 223.768 729.003 223.72
C 734.503 223.706 740.003 223.735 745.503 223.755
C 746.776 223.76 748.049 223.749 749.322 223.711
C 749.795 223.697 750.714 223.513 751.082 223.814
C 751.056 226.64 750.802 229.858 751.251 232.647
C 746.336 233.109 741.381 234.165 736.753 235.881
C 732.073 237.615 727.409 239.815 723.457 242.904
C 715.165 249.382 709.627 258.337 705.058 267.662
C 698.927 280.176 694.455 293.403 688.988 306.21
C 678.502 330.777 669.456 355.944 659.535 380.737
C 644.282 418.853 629.616 457.217 614.176 495.258
C 607.607 511.444 600.74 527.514 594.093 543.666
C 593.524 544.025 592.346 543.833 591.683 543.857
C 589.325 543.945 586.915 543.986 584.558 543.902
C 583.697 543.062 583.41 541.336 582.939 540.227
C 581.668 537.236 580.53 534.18 579.314 531.165
C 575.203 520.964 571.008 510.794 566.85 500.613
C 554.582 470.576 541.853 440.713 529.821 410.587
C 526.554 402.406 523.085 394.293 519.772 386.132
C 518.488 382.969 515.901 378.798 515.772 375.392 Z"
opacity="1" fill="rgb(123,166,187)" fill-rule="evenodd" />
<path d="
M 583.987 747.108
C 584.913 730.29 592.579 714.775 606.517 704.998
C 624.505 692.381 651.313 693.011 668.841 706.164
C 676.04 711.565 681.109 719.37 684.175 727.744
C 686.944 735.308 687.802 743.268 687.363 751.267
C 686.704 763.303 681.394 776.281 672.812 784.847
C 652.271 805.352 616.245 805.762 596.33 784.163
C 592.007 779.474 589.058 773.626 586.939 767.655
C 584.647 761.194 583.61 753.957 583.987 747.108 Z
M 602.451 735.11
C 601.383 747.024 603.029 759.665 607.642 770.717
C 610.296 777.074 613.849 783.216 619.195 787.706
C 630.098 796.863 648.883 798.526 659.331 787.542
C 665.628 780.922 668.468 770.566 669.252 761.685
C 670.887 743.171 667.255 721.276 652.431 708.522
C 640.959 698.651 622.325 698.902 611.995 710.285
C 605.974 716.92 603.236 726.348 602.451 735.11 Z"
opacity="1" fill="rgb(121,164,188)" fill-rule="evenodd" />
<path d="
M 711.445 699.604
C 711.61 698.992 711.679 698.409 711.733 697.778
C 717.098 697.434 722.617 697.796 727.999 697.817
C 735.873 697.848 743.743 697.637 751.612 697.619
C 751.707 698.734 751.846 700.036 751.687 701.137
C 746.921 701.754 741.635 702.025 739.869 707.504
C 738.927 710.427 739.347 714.157 739.351 717.19
C 739.36 722.996 739.368 728.802 739.385 734.608
C 739.42 746.57 739.555 758.547 739.56 770.5
C 739.564 777.304 739.141 784.429 740.266 791.147
C 741.142 791.732 743.056 791.568 744.111 791.567
C 747.23 791.565 750.35 791.613 753.469 791.621
C 761.668 791.641 771.917 792.733 778.327 786.466
C 780.4 784.439 781.835 781.635 782.971 779.004
C 783.9 776.854 784.803 774.603 785.28 772.303
C 786.544 772.333 787.84 772.299 789.087 772.509
C 788.83 778.481 786.951 784.845 785.698 790.69
C 785.198 793.026 785.064 796.396 783.733 798.41
C 767.01 797.879 750.226 798.239 733.496 798.292
C 728.963 798.306 724.409 798.202 719.879 798.367
C 717.241 798.464 714.054 799.107 711.474 798.486
C 711.555 797.342 711.47 795.969 711.822 794.884
C 716.313 794.357 721.313 794.061 722.826 788.996
C 723.506 786.716 723.305 784.113 723.295 781.763
C 723.277 777.842 723.309 773.92 723.311 769.999
C 723.318 756.999 723.276 743.999 723.259 730.999
C 723.251 725.569 723.255 720.139 723.151 714.71
C 723.1 712.045 723.393 708.819 722.529 706.263
C 721.098 702.027 715.21 701.235 711.378 701.05
C 711.178 700.593 711.368 700.084 711.445 699.604 Z"
opacity="1" fill="rgb(122,165,188)" fill-rule="evenodd" />
<path d="
M 810.458 697.844
C 811.558 697.366 813.28 697.655 814.468 697.7
C 816.81 697.79 819.155 697.827 821.499 697.811
C 828.292 697.765 835.091 697.761 841.884 697.794
C 844.348 697.807 847.122 697.21 849.544 697.554
C 849.547 698.632 849.291 699.737 849.41 700.802
C 848.738 701.531 845.852 701.475 844.817 701.658
C 842.166 702.127 839.563 703.906 838.519 706.509
C 837.747 708.431 838.109 710.96 838.04 712.987
C 837.859 718.317 837.833 723.658 837.822 728.998
C 837.796 742.665 837.812 756.331 837.807 769.998
C 837.805 773.789 837.809 777.581 837.825 781.372
C 837.837 784.231 837.705 787.263 838.706 789.993
C 840.283 794.296 846.248 794.753 850.109 795.281
C 850.351 796.377 850.067 797.665 850.128 798.796
C 846.865 798.107 842.939 798.535 839.61 798.536
C 833.48 798.539 827.348 798.332 821.222 798.43
C 817.725 798.486 814.064 798.985 810.587 798.53
C 810.143 797.63 809.917 796.348 810.412 795.437
C 813.998 793.758 819.288 794.728 821.051 790.25
C 821.992 787.858 821.739 784.824 821.752 782.306
C 821.777 777.37 821.763 772.435 821.77 767.5
C 821.788 753.667 821.782 739.833 821.785 726
C 821.786 721.9 821.793 717.8 821.784 713.699
C 821.778 711.429 822.018 708.846 821.279 706.663
C 819.52 701.47 814.688 701.963 810.315 701.062
C 809.909 700.149 810.347 698.82 810.458 697.844 Z"
opacity="1" fill="rgb(123,165,188)" fill-rule="evenodd" />
<path d="
M 873.925 745.607
C 875.285 728.669 883.937 712.574 898.496 703.424
C 916.854 691.886 944.037 693.145 960.632 707.471
C 967.293 713.221 971.769 721.153 974.546 729.392
C 976.761 735.961 977.59 743.572 977.089 750.48
C 976.446 759.348 974.103 768.564 969.267 776.121
C 963.826 784.625 956.36 791.233 947.212 795.521
C 927.641 804.696 900.656 800.703 885.989 784.422
C 876.734 774.15 872.833 759.212 873.925 745.607 Z
M 891.503 740.121
C 890.888 757.045 895.946 777.29 909.768 788.268
C 921.226 797.367 940.22 798.042 950.173 786.227
C 956.569 778.635 958.907 767.934 959.264 758.244
C 959.893 741.127 956.373 720.269 942.653 708.444
C 930.296 697.792 910.272 698.456 900.101 711.831
C 894.049 719.791 891.86 730.304 891.503 740.121 Z"
opacity="1" fill="rgb(123,165,187)" fill-rule="evenodd" />

</svg>